<?xml version="1.0" standalone="no"?>
<!DOCTYPE svg PUBLIC "-//W3C//DTD SVG 20010904//EN"
 "http://www.w3.org/TR/2001/REC-SVG-20010904/DTD/svg10.dtd">
<svg version="1.0" xmlns="http://www.w3.org/2000/svg"
 width="1024.000000pt" height="1024.000000pt" viewBox="0 0 1024.000000 1024.000000"
 preserveAspectRatio="xMidYMid meet">
<metadata>
Created by potrace 1.11, written by Peter Selinger 2001-2013
</metadata>
<g transform="translate(0.000000,1024.000000) scale(0.100000,-0.100000)"
fill="#000000" stroke="none">
<path d="M881 10224 c-68 -18 -109 -43 -156 -95 -61 -68 -80 -121 -79 -219 1
-134 74 -523 150 -793 203 -729 517 -1388 963 -2022 224 -318 435 -568 740
-879 389 -394 733 -680 1224 -1016 59 -41 107 -77 107 -80 0 -3 -48 -39 -107
-80 -488 -334 -843 -629 -1228 -1021 -830 -846 -1392 -1801 -1695 -2881 -84
-302 -168 -756 -157 -851 14 -112 94 -218 197 -260 54 -21 64 -22 450 -22 394
0 395 0 447 24 61 27 136 103 163 165 11 23 26 85 35 137 8 52 25 142 37 202
l22 107 3122 0 3122 0 21 -92 c12 -51 30 -143 41 -205 10 -62 28 -134 40 -160
30 -69 107 -137 182 -162 58 -20 84 -21 418 -21 384 0 431 5 509 54 91 58 146
162 143 271 -7 273 -155 877 -326 1332 -284 758 -680 1415 -1250 2073 -220
254 -781 790 -809 773 -7 -3 -77 -50 -157 -103 -271 -182 -532 -339 -833 -503
l-168 -92 24 -20 c14 -11 89 -74 167 -140 l142 -120 -636 -3 c-350 -1 -922 -1
-1272 0 l-637 3 139 111 c285 227 556 416 844 588 211 127 288 169 630 346
432 224 664 358 980 566 1401 920 2413 2177 2898 3599 136 398 263 956 266
1170 1 78 -3 98 -25 145 -33 71 -99 134 -169 163 -54 21 -64 22 -450 22 -387
0 -396 0 -443 -22 -131 -61 -174 -130 -212 -348 -14 -82 -32 -175 -39 -205
l-13 -55 -3124 0 -3124 0 -17 80 c-10 44 -27 136 -38 205 -32 195 -89 278
-225 329 -53 20 -74 21 -418 20 -284 0 -374 -3 -416 -15z m6848 -1926 c-66
-123 -253 -412 -351 -540 l-59 -78 -2199 0 -2200 0 -68 93 c-126 170 -342 509
-342 537 0 7 806 10 2615 10 l2616 0 -12 -22z m-1345 -1596 c-290 -234 -403
-319 -624 -467 -154 -103 -417 -264 -572 -349 -78 -43 -49 -51 -262 71 -242
140 -598 375 -796 526 -99 76 -290 230 -290 234 0 1 577 3 1283 3 1216 0 1281
-1 1261 -18z m1008 -4259 c111 -154 176 -251 264 -398 l73 -120 -1310 -3
c-721 -1 -1898 -1 -2615 0 l-1304 3 78 130 c92 154 203 320 284 428 l59 77
2193 0 2192 0 86 -117z"/>
</g>
</svg>
